<svg width="0" height="0" class="hidden">
  <symbol xmlns="http://www.w3.org/2000/svg" viewBox="0 0 40 18" id="logo-inner">
    <path d="M1.88 15.131c.628 0 1.187-.106 1.679-.32a3.436 3.436 0 001.256-.899c.338-.385.596-.853.773-1.403.185-.55.278-1.166.278-1.847V0h3.25v10.662c0 1.059-.17 2.04-.508 2.943a6.68 6.68 0 01-1.437 2.327A6.565 6.565 0 014.9 17.458c-.894.361-1.901.542-3.02.542-1.128 0-2.139-.18-3.032-.542a6.692 6.692 0 01-2.284-1.526 6.9 6.9 0 01-1.437-2.327c-.33-.903-.495-1.884-.495-2.943V0h3.25v10.65c0 .681.088 1.297.265 1.847.185.55.447 1.021.785 1.415a3.59 3.59 0 001.256.9c.5.213 1.063.32 1.692.32zM27.506 0v17.803h-1.668c-.257 0-.475-.041-.652-.123a1.624 1.624 0 01-.495-.443L15.57 5.368a17 17 0 01.072 1.502v10.933H12.78V0h1.703c.137 0 .254.008.35.025a.636.636 0 01.267.073c.08.033.157.087.229.16.072.066.153.157.242.271l9.156 11.918c-.024-.287-.044-.57-.06-.85a13.614 13.614 0 01-.025-.775V0h2.864zm18.856 0l-7.054 17.803h-2.936L29.318 0h2.609c.282 0 .511.07.688.21.178.139.31.32.399.541l4.12 10.86c.136.352.265.742.386 1.169.129.418.25.857.362 1.317.097-.46.202-.899.314-1.317.113-.427.238-.817.375-1.17L42.666.751a1.18 1.18 0 01.374-.517 1.08 1.08 0 01.7-.234h2.622z"></path>
  </symbol>
  <symbol xmlns="http://www.w3.org/2000/svg" viewBox="0 0 113 19" id="logo-title">
    <path d="M7.266 1.25v2.115l-1.88.36v9.134c0 1.154.31 2.019.928 2.596.627.569 1.482.853 2.566.853 1.101 0 1.964-.284 2.591-.853.627-.57.94-1.434.94-2.596V3.725l-1.868-.36V1.25h7.266v2.115l-1.88.36v9.134c0 1.963-.65 3.477-1.952 4.543C12.684 18.467 10.985 19 8.88 19c-2.096 0-3.791-.533-5.084-1.598-1.286-1.066-1.928-2.58-1.928-4.543V3.725L0 3.365V1.25h7.266zm11.483 15.395l1.687-.361V8.22l-1.868-.36V5.744h5.145l.157 1.863a4.763 4.763 0 011.603-1.55c.634-.369 1.345-.553 2.132-.553 1.318 0 2.346.413 3.085 1.238.74.825 1.109 2.12 1.109 3.882v5.66l1.687.36v2.104h-6.724v-2.104l1.506-.36v-5.648c0-.874-.177-1.49-.53-1.851-.354-.369-.888-.553-1.603-.553-.466 0-.883.096-1.253.289a2.52 2.52 0 00-.928.793v6.97l1.422.36v2.104H18.75v-2.104zm15.749 0l1.699-.361V8.22l-1.88-.36V5.744h5.398v10.54l1.687.36v2.104h-6.904v-2.104zm5.217-14.013h-3.518V0h3.518v2.632zM48.09 7.86l-1.23.228 1.724 5.817.228 1.225h.073l.253-1.226L50.837 8.1l-1.253-.24V5.744H55.5V7.86l-1.133.18-3.843 10.708h-3.362L43.306 8.04l-1.133-.18V5.744h5.916V7.86zM62.706 19c-1.88 0-3.382-.6-4.507-1.803-1.125-1.201-1.687-2.728-1.687-4.578v-.481c0-1.931.53-3.521 1.59-4.771 1.069-1.25 2.499-1.87 4.29-1.863 1.76 0 3.125.529 4.097 1.586.972 1.058 1.458 2.488 1.458 4.29v1.912h-7.784l-.024.072c.064.857.35 1.562.855 2.115.515.553 1.21.829 2.085.829.78 0 1.426-.076 1.94-.228a9.252 9.252 0 001.687-.745l.952 2.163c-.538.424-1.237.78-2.097 1.07-.851.288-1.803.432-2.856.432zm-.314-10.792c-.65 0-1.165.248-1.542.745-.378.497-.61 1.15-.699 1.96l.036.06h4.314v-.313c0-.745-.177-1.338-.53-1.779-.346-.449-.872-.673-1.579-.673zm7.495 8.437l1.687-.361V8.22l-1.868-.36V5.744h5.145l.157 1.9c.305-.674.699-1.199 1.18-1.575a2.643 2.643 0 011.676-.565c.184 0 .377.016.578.048.209.024.382.056.518.096l-.373 3.197-1.446-.036c-.514 0-.94.1-1.278.3-.337.2-.594.485-.77.854v6.321l1.686.36v2.104h-6.892v-2.104zm20.761-6.43h-2.361l-.374-1.622a3.072 3.072 0 00-.916-.481 3.586 3.586 0 00-1.205-.192c-.618 0-1.108.14-1.47.42-.361.273-.542.617-.542 1.034 0 .392.173.72.518.985.346.257 1.036.485 2.073.685 1.614.32 2.811.793 3.59 1.418.78.617 1.17 1.47 1.17 2.56 0 1.17-.507 2.127-1.519 2.872-1.004.738-2.33 1.106-3.976 1.106-1.004 0-1.928-.144-2.772-.433a7.179 7.179 0 01-2.229-1.262l-.036-2.92h2.458l.482 1.695c.209.176.494.308.855.396.362.08.74.12 1.133.12.715 0 1.257-.128 1.627-.384.377-.256.566-.605.566-1.046 0-.384-.189-.717-.566-.997-.378-.28-1.072-.529-2.085-.745-1.534-.313-2.695-.773-3.482-1.382-.78-.617-1.169-1.454-1.169-2.512 0-1.09.45-2.027 1.35-2.812.9-.793 2.18-1.19 3.844-1.19 1.012 0 1.968.136 2.867.409.908.272 1.619.62 2.133 1.045l.036 3.233zm10.363 8.533a6.374 6.374 0 01-.253-.661 5.353 5.353 0 01-.169-.697c-.418.48-.928.869-1.53 1.165-.595.297-1.278.445-2.049.445-1.277 0-2.293-.345-3.048-1.034-.747-.697-1.12-1.642-1.12-2.836 0-1.218.49-2.159 1.47-2.824s2.417-.997 4.313-.997h1.795v-1.274c0-.625-.18-1.11-.542-1.454-.361-.345-.896-.517-1.603-.517a3.66 3.66 0 00-1.072.144 2.694 2.694 0 00-.759.325l-.229 1.394h-2.65l.011-2.885a9.923 9.923 0 012.205-1.093 8.088 8.088 0 012.723-.445c1.615 0 2.924.397 3.929 1.19 1.012.785 1.518 1.907 1.518 3.365v5.937c.008.176.024.344.048.504l1.072.145v2.103h-4.06zm-3.049-2.344c.53 0 1.012-.112 1.446-.336.434-.233.771-.521 1.012-.866V13.22h-1.795c-.747 0-1.313.176-1.699.528-.386.345-.578.761-.578 1.25 0 .44.14.785.421 1.034.29.248.687.372 1.193.372zm7.941-14.289V0h5.398v16.284l1.699.36v2.104h-6.916v-2.104l1.699-.36V2.476l-1.88-.36z"></path>
  </symbol>
  <symbol xmlns="http://www.w3.org/2000/svg" viewBox="0 0 15 7" id="button-arrow">
    <path d="M0 3v1h11v3l4-3.5L11 0v3H0z"></path>
  </symbol>
  <symbol xmlns="http://www.w3.org/2000/svg" viewBox="0 0 15 14" id="comment-icon">
    <path d="M11.135 11v3L8.36 11H2.25a1.5 1.5 0 01-1.5-1.5V2A1.5 1.5 0 012.25.5h10.5a1.5 1.5 0 011.5 1.5v7.5a1.5 1.5 0 01-1.5 1.5h-1.615z"></path>
  </symbol>
  <symbol xmlns="http://www.w3.org/2000/svg" viewBox="0 0 56 72" id="files-icon">
    <path d="M40 0l16 16v52a4 4 0 01-4 4H4a4 4 0 01-4-4V4a4 4 0 014-4h36zm-4 20V4H4v64h48V20H36z"></path>
  </symbol>
  <symbol xmlns="http://www.w3.org/2000/svg" viewBox="0 0 13 13" id="like-icon">
    <path d="M11.84 1.96C11.17 1.212 10.28.8 9.334.8c-.947 0-1.74.412-2.41 1.16l-.425.68-.425-.68C5.406 1.212 4.612.8 3.665.8c-.945 0-1.835.412-2.504 1.16-1.381 1.546-1.381 4.06 0 5.604l4.949 4.757a.523.523 0 00.393.179c.14 0 .28-.06.387-.18l4.95-4.756c1.38-1.544 1.38-4.058 0-5.604z"></path>
  </symbol>
  <symbol  xmlns="http://www.w3.org/2000/svg" viewBox="0 0 20 20" id="download-icon">
    <path d="M18 13.426c0-.237.263-.426.5-.426s.5.189.5.426v4.134a.44.44 0 01-.432.44H2.426A.435.435 0 012 17.56v-4.134c0-.237.263-.426.5-.426s.5.189.5.426V17h15v-3.574zM11 1v10h3l-3.5 4L7 11h3V1h1z"></path>
  </symbol>
  <symbol xmlns="http://www.w3.org/2000/svg" viewBox="0 0 10 18" id="facebook-icon">
    <path d="M9.623.004L7.225 0C4.53 0 2.789 1.739 2.789 4.43v2.042H.377A.372.372 0 000 6.84V9.8c0 .203.169.367.377.367H2.79v7.467c0 .203.169.367.377.367h3.146a.372.372 0 00.378-.367v-7.467h2.82a.372.372 0 00.376-.367l.002-2.96c0-.097-.04-.19-.11-.26a.382.382 0 00-.268-.107H6.69V4.741c0-.832.203-1.255 1.317-1.255h1.616A.372.372 0 0010 3.119V.37a.372.372 0 00-.377-.367z"></path>
  </symbol>
  <symbol xmlns="http://www.w3.org/2000/svg" viewBox="0 0 20 20" id="twitter-icon">
    <path d="M18.979 4.363a.088.088 0 00-.105-.025 7.151 7.151 0 01-1.687.517 3.777 3.777 0 001.317-1.867.09.09 0 00-.03-.098.089.089 0 00-.101-.008 7.177 7.177 0 01-2.245.875 3.745 3.745 0 00-2.7-1.157c-2.066 0-3.746 1.696-3.746 3.78 0 .253.024.503.072.745A10.298 10.298 0 012.4 3.31a.09.09 0 00-.147.012 3.806 3.806 0 00-.507 1.9 3.79 3.79 0 001.41 2.958 3.557 3.557 0 01-1.307-.426.088.088 0 00-.088 0 .09.09 0 00-.045.077v.048a3.79 3.79 0 002.633 3.612 3.57 3.57 0 01-1.245-.018.09.09 0 00-.102.116A3.752 3.752 0 006.253 14.2a7.155 7.155 0 01-4.292 1.412c-.287 0-.577-.017-.861-.051a.09.09 0 00-.095.059.09.09 0 00.036.106A10.38 10.38 0 006.694 17.4c6.568 0 10.492-5.385 10.492-10.591 0-.145-.002-.29-.008-.433a7.51 7.51 0 001.807-1.905.091.091 0 00-.006-.108z"></path>
  </symbol>
  <symbol xmlns="http://www.w3.org/2000/svg" viewBox="0 0 20 20" id="youtube-icon">
    <path d="M10 2.8c-2.898 0-6.66.73-6.66.73l-.009.01A2.77 2.77 0 001 6.277v7.445a2.778 2.778 0 002.338 2.743l.003.004S7.102 17.2 10 17.2c2.898 0 6.66-.73 6.66-.73A2.78 2.78 0 0019 13.722V6.277a2.778 2.778 0 00-2.338-2.744C16.66 3.53 12.898 2.8 10 2.8zM8.2 6.85L13.6 10l-5.4 3.15v-6.3z"></path>
  </symbol>
</svg>